<svg xmlns="http://www.w3.org/2000/svg" viewBox="0 0 192 192" width="192" height="192">
<title>Achteckiges Badebecken mit breiter Einstiegstreppe</title>
<defs><linearGradient id="genre-antike_badebecken-metal" x1="0" y1="0" x2=".75" y2="1"><stop stop-color="#c7d4d4"/><stop offset=".5" stop-color="#8da4ab"/><stop offset="1" stop-color="#647e89"/></linearGradient><linearGradient id="genre-antike_badebecken-ceramic" x1="0" y1="0" x2=".75" y2="1"><stop stop-color="#f2f1e5"/><stop offset=".5" stop-color="#d7e0db"/><stop offset="1" stop-color="#a4b7b4"/></linearGradient><linearGradient id="genre-antike_badebecken-wood" x1="0" y1="0" x2=".75" y2="1"><stop stop-color="#d1af80"/><stop offset=".5" stop-color="#b68d60"/><stop offset="1" stop-color="#8d6848"/></linearGradient><linearGradient id="genre-antike_badebecken-fabric" x1="0" y1="0" x2=".75" y2="1"><stop stop-color="#a4b6b6"/><stop offset=".5" stop-color="#728e99"/><stop offset="1" stop-color="#4e6b79"/></linearGradient><linearGradient id="genre-antike_badebecken-copper" x1="0" y1="0" x2=".75" y2="1"><stop stop-color="#d7b08b"/><stop offset=".5" stop-color="#af7b57"/><stop offset="1" stop-color="#815640"/></linearGradient><linearGradient id="genre-antike_badebecken-glass" x1="0" y1="0" x2=".75" y2="1"><stop stop-color="#b7e1df"/><stop offset=".5" stop-color="#6aa7b5"/><stop offset="1" stop-color="#3f737f"/></linearGradient><filter id="genre-antike_badebecken-shadow" x="-10%" y="-10%" width="120%" height="125%"><feDropShadow dx="0" dy="1.6" stdDeviation="1.2" flood-color="#13262c" flood-opacity=".32"/></filter><clipPath id="genre-antike_badebecken-bounds"><rect x="0" y="0" width="192" height="192"/></clipPath></defs><g clip-path="url(#genre-antike_badebecken-bounds)"><g filter="url(#genre-antike_badebecken-shadow)"><polygon points="42,9 150,9 183,42 183,150 150,183 42,183 9,150 9,42" fill="#b5a788" stroke="#263b43" stroke-width="1" stroke-linejoin="round"/><polygon points="48,22 144,22 170,48 170,145 145,170 48,170 22,145 22,48" fill="#d4c7a7" stroke="#263b43" stroke-width="1" stroke-linejoin="round"/><polygon points="51,35 139,35 157,53 157,137 137,157 53,157 35,137 35,53" fill="#70a29e" stroke="#263b43" stroke-width="1" stroke-linejoin="round"/><rect x="57" y="35" width="78" height="11" rx="0" fill="#d0c4a7" stroke="#738f89" stroke-width="0.8"/><rect x="62" y="46" width="68" height="11" rx="0" fill="#b8bda4" stroke="#738f89" stroke-width="0.8"/><rect x="67" y="57" width="58" height="11" rx="0" fill="#a3b6a1" stroke="#738f89" stroke-width="0.8"/><rect x="72" y="68" width="48" height="11" rx="0" fill="#8eaaa0" stroke="#738f89" stroke-width="0.8"/><path d="M52 120q18 -10 34 0t34 0t22 -2M72 142q24 -8 47 0" fill="none" stroke="#b8d3bb" stroke-width="1.7" stroke-linejoin="round" stroke-linecap="round"/></g></g>
</svg>
