<svg xmlns="http://www.w3.org/2000/svg" viewBox="0 0 128 128" width="128" height="128">
<title>Spiraltreppe mit gelochten Metallstufen und geschwungenem Geländer</title>
<defs><linearGradient id="genre-steampunk_wendeltreppe-metal" x1="0" y1="0" x2=".75" y2="1"><stop stop-color="#c7d4d4"/><stop offset=".5" stop-color="#8da4ab"/><stop offset="1" stop-color="#647e89"/></linearGradient><linearGradient id="genre-steampunk_wendeltreppe-ceramic" x1="0" y1="0" x2=".75" y2="1"><stop stop-color="#f2f1e5"/><stop offset=".5" stop-color="#d7e0db"/><stop offset="1" stop-color="#a4b7b4"/></linearGradient><linearGradient id="genre-steampunk_wendeltreppe-wood" x1="0" y1="0" x2=".75" y2="1"><stop stop-color="#d1af80"/><stop offset=".5" stop-color="#b68d60"/><stop offset="1" stop-color="#8d6848"/></linearGradient><linearGradient id="genre-steampunk_wendeltreppe-fabric" x1="0" y1="0" x2=".75" y2="1"><stop stop-color="#a4b6b6"/><stop offset=".5" stop-color="#728e99"/><stop offset="1" stop-color="#4e6b79"/></linearGradient><linearGradient id="genre-steampunk_wendeltreppe-copper" x1="0" y1="0" x2=".75" y2="1"><stop stop-color="#d7b08b"/><stop offset=".5" stop-color="#af7b57"/><stop offset="1" stop-color="#815640"/></linearGradient><linearGradient id="genre-steampunk_wendeltreppe-glass" x1="0" y1="0" x2=".75" y2="1"><stop stop-color="#b7e1df"/><stop offset=".5" stop-color="#6aa7b5"/><stop offset="1" stop-color="#3f737f"/></linearGradient><filter id="genre-steampunk_wendeltreppe-shadow" x="-10%" y="-10%" width="120%" height="125%"><feDropShadow dx="0" dy="1.6" stdDeviation="1.2" flood-color="#13262c" flood-opacity=".32"/></filter><clipPath id="genre-steampunk_wendeltreppe-bounds"><rect x="0" y="0" width="128" height="128"/></clipPath></defs><g clip-path="url(#genre-steampunk_wendeltreppe-bounds)"><g filter="url(#genre-steampunk_wendeltreppe-shadow)"><circle cx="64" cy="64" r="50" fill="#4d594b" stroke="#263b43" stroke-width="1"/><g transform="rotate(-70 64 64)"><path d="M69 54L104 26Q113 37 115 49L76 65Z" fill="#a59c73" stroke="#263b43" stroke-width="1.2" stroke-linejoin="round" stroke-linecap="round"/><line x1="79" y1="52" x2="105" y2="40" stroke="#605f48" stroke-width="0.8" stroke-linecap="round"/><line x1="82" y1="59" x2="111" y2="49" stroke="#605f48" stroke-width="0.8" stroke-linecap="round"/></g><g transform="rotate(-42 64 64)"><path d="M69 54L104 26Q113 37 115 49L76 65Z" fill="url(#genre-steampunk_wendeltreppe-copper)" stroke="#263b43" stroke-width="1.2" stroke-linejoin="round" stroke-linecap="round"/><line x1="79" y1="52" x2="105" y2="40" stroke="#605f48" stroke-width="0.8" stroke-linecap="round"/><line x1="82" y1="59" x2="111" y2="49" stroke="#605f48" stroke-width="0.8" stroke-linecap="round"/></g><g transform="rotate(-14 64 64)"><path d="M69 54L104 26Q113 37 115 49L76 65Z" fill="#a59c73" stroke="#263b43" stroke-width="1.2" stroke-linejoin="round" stroke-linecap="round"/><line x1="79" y1="52" x2="105" y2="40" stroke="#605f48" stroke-width="0.8" stroke-linecap="round"/><line x1="82" y1="59" x2="111" y2="49" stroke="#605f48" stroke-width="0.8" stroke-linecap="round"/></g><g transform="rotate(14 64 64)"><path d="M69 54L104 26Q113 37 115 49L76 65Z" fill="url(#genre-steampunk_wendeltreppe-copper)" stroke="#263b43" stroke-width="1.2" stroke-linejoin="round" stroke-linecap="round"/><line x1="79" y1="52" x2="105" y2="40" stroke="#605f48" stroke-width="0.8" stroke-linecap="round"/><line x1="82" y1="59" x2="111" y2="49" stroke="#605f48" stroke-width="0.8" stroke-linecap="round"/></g><g transform="rotate(42 64 64)"><path d="M69 54L104 26Q113 37 115 49L76 65Z" fill="#a59c73" stroke="#263b43" stroke-width="1.2" stroke-linejoin="round" stroke-linecap="round"/><line x1="79" y1="52" x2="105" y2="40" stroke="#605f48" stroke-width="0.8" stroke-linecap="round"/><line x1="82" y1="59" x2="111" y2="49" stroke="#605f48" stroke-width="0.8" stroke-linecap="round"/></g><g transform="rotate(70 64 64)"><path d="M69 54L104 26Q113 37 115 49L76 65Z" fill="url(#genre-steampunk_wendeltreppe-copper)" stroke="#263b43" stroke-width="1.2" stroke-linejoin="round" stroke-linecap="round"/><line x1="79" y1="52" x2="105" y2="40" stroke="#605f48" stroke-width="0.8" stroke-linecap="round"/><line x1="82" y1="59" x2="111" y2="49" stroke="#605f48" stroke-width="0.8" stroke-linecap="round"/></g><g transform="rotate(98 64 64)"><path d="M69 54L104 26Q113 37 115 49L76 65Z" fill="#a59c73" stroke="#263b43" stroke-width="1.2" stroke-linejoin="round" stroke-linecap="round"/><line x1="79" y1="52" x2="105" y2="40" stroke="#605f48" stroke-width="0.8" stroke-linecap="round"/><line x1="82" y1="59" x2="111" y2="49" stroke="#605f48" stroke-width="0.8" stroke-linecap="round"/></g><g transform="rotate(126 64 64)"><path d="M69 54L104 26Q113 37 115 49L76 65Z" fill="url(#genre-steampunk_wendeltreppe-copper)" stroke="#263b43" stroke-width="1.2" stroke-linejoin="round" stroke-linecap="round"/><line x1="79" y1="52" x2="105" y2="40" stroke="#605f48" stroke-width="0.8" stroke-linecap="round"/><line x1="82" y1="59" x2="111" y2="49" stroke="#605f48" stroke-width="0.8" stroke-linecap="round"/></g><g transform="rotate(154 64 64)"><path d="M69 54L104 26Q113 37 115 49L76 65Z" fill="#a59c73" stroke="#263b43" stroke-width="1.2" stroke-linejoin="round" stroke-linecap="round"/><line x1="79" y1="52" x2="105" y2="40" stroke="#605f48" stroke-width="0.8" stroke-linecap="round"/><line x1="82" y1="59" x2="111" y2="49" stroke="#605f48" stroke-width="0.8" stroke-linecap="round"/></g><g transform="rotate(182 64 64)"><path d="M69 54L104 26Q113 37 115 49L76 65Z" fill="url(#genre-steampunk_wendeltreppe-copper)" stroke="#263b43" stroke-width="1.2" stroke-linejoin="round" stroke-linecap="round"/><line x1="79" y1="52" x2="105" y2="40" stroke="#605f48" stroke-width="0.8" stroke-linecap="round"/><line x1="82" y1="59" x2="111" y2="49" stroke="#605f48" stroke-width="0.8" stroke-linecap="round"/></g><g transform="rotate(210 64 64)"><path d="M69 54L104 26Q113 37 115 49L76 65Z" fill="#a59c73" stroke="#263b43" stroke-width="1.2" stroke-linejoin="round" stroke-linecap="round"/><line x1="79" y1="52" x2="105" y2="40" stroke="#605f48" stroke-width="0.8" stroke-linecap="round"/><line x1="82" y1="59" x2="111" y2="49" stroke="#605f48" stroke-width="0.8" stroke-linecap="round"/></g><circle cx="64" cy="64" r="10" fill="url(#genre-steampunk_wendeltreppe-metal)" stroke="#263b43" stroke-width="1"/><path d="M19 84A50 50 0 1 1 110 85" fill="none" stroke="#d9bc7d" stroke-width="3" stroke-linejoin="round" stroke-linecap="round"/><path d="M26 96l-10 -2l2 -10" fill="none" stroke="#eddbab" stroke-width="2" stroke-linejoin="round" stroke-linecap="round"/></g></g>
</svg>
