<svg xmlns="http://www.w3.org/2000/svg" viewBox="0 0 64 64" width="64" height="64">
<title>Falltür, gemalt</title>
<defs><filter id="falltuer-korn" x="-2%" y="-2%" width="104%" height="104%" color-interpolation-filters="sRGB"><feTurbulence type="fractalNoise" baseFrequency="0.06 1" numOctaves="4" seed="167" result="rauschen"/><feColorMatrix in="rauschen" type="saturate" values="0" result="grau"/><feComponentTransfer in="grau" result="weich"><feFuncA type="linear" slope="0.36" intercept="0"/></feComponentTransfer><feComposite in="weich" in2="SourceGraphic" operator="in" result="beschnitten"/><feBlend in="SourceGraphic" in2="beschnitten" mode="multiply"/></filter><linearGradient id="falltuer-holzverlauf" x1="0.76" y1="0.08" x2="0.24" y2="0.92"><stop offset="0%" stop-color="#b1854f"/><stop offset="45%" stop-color="#8a5f34"/><stop offset="100%" stop-color="#5b3d1e"/></linearGradient><filter id="falltuer-weich" x="-20%" y="-20%" width="140%" height="140%" color-interpolation-filters="sRGB"><feGaussianBlur stdDeviation="1.8"/></filter></defs><rect x="12" y="12" width="40" height="40" fill="#1a1713" fill-opacity="0.4" transform="translate(1.2 1.6)" filter="url(#falltuer-weich)"/><rect x="12" y="12" width="40" height="40" fill="url(#falltuer-holzverlauf)" rx="1.6" filter="url(#falltuer-korn)"/><line x1="12" y1="16" x2="52" y2="16" stroke="#33210f" stroke-width="0.9" stroke-opacity="0.5"/><line x1="12" y1="24" x2="52" y2="24" stroke="#33210f" stroke-width="0.9" stroke-opacity="0.5"/><line x1="12" y1="32" x2="52" y2="32" stroke="#33210f" stroke-width="0.9" stroke-opacity="0.5"/><line x1="12" y1="40" x2="52" y2="40" stroke="#33210f" stroke-width="0.9" stroke-opacity="0.3"/><line x1="12" y1="48" x2="52" y2="48" stroke="#33210f" stroke-width="0.9" stroke-opacity="0.4"/><rect x="15.8" y="12" width="4.4" height="40" fill="#4a4038" filter="url(#falltuer-korn)"/><rect x="43.8" y="12" width="4.4" height="40" fill="#4a4038" filter="url(#falltuer-korn)"/><circle cx="32" cy="32" r="5.5" fill="none" stroke="#4a4038" stroke-width="3"/><circle cx="31.2" cy="31.2" r="5.5" fill="none" stroke="#a6abb2" stroke-width="0.9" stroke-opacity="0.4"/><rect x="12" y="12" width="40" height="40" fill="none" stroke="#1a1713" stroke-width="1.8" rx="1.6" stroke-opacity="0.75"/>
</svg>
