<svg xmlns="http://www.w3.org/2000/svg" viewBox="0 0 64 128" width="64" height="128">
<title>Treppe abwärts, gemalt</title>
<defs><filter id="treppe_ab-korn" x="-2%" y="-2%" width="104%" height="104%" color-interpolation-filters="sRGB"><feTurbulence type="fractalNoise" baseFrequency="0.85" numOctaves="5" seed="139" result="rauschen"/><feColorMatrix in="rauschen" type="saturate" values="0" result="grau"/><feComponentTransfer in="grau" result="weich"><feFuncA type="linear" slope="0.34" intercept="0"/></feComponentTransfer><feComposite in="weich" in2="SourceGraphic" operator="in" result="beschnitten"/><feBlend in="SourceGraphic" in2="beschnitten" mode="multiply"/></filter></defs><rect x="4" y="3" width="56" height="122" fill="#4a463f" filter="url(#treppe_ab-korn)"/><rect x="5" y="3.6" width="54" height="16.23" fill="#69635c" rx="1.2" filter="url(#treppe_ab-korn)"/><line x1="5.6" y1="4.2" x2="58.4" y2="4.2" stroke="#928b80" stroke-width="0.9" stroke-opacity="0.3"/><line x1="5" y1="19.83" x2="59" y2="19.83" stroke="#1a1713" stroke-width="1.6" stroke-opacity="0.5"/><rect x="5" y="21.03" width="54" height="16.23" fill="#676059" rx="1.2" filter="url(#treppe_ab-korn)"/><line x1="5.6" y1="21.63" x2="58.4" y2="21.63" stroke="#928b80" stroke-width="0.9" stroke-opacity="0.3"/><line x1="5" y1="37.26" x2="59" y2="37.26" stroke="#1a1713" stroke-width="1.6" stroke-opacity="0.5"/><rect x="5" y="38.46" width="54" height="16.23" fill="#645f56" rx="1.2" filter="url(#treppe_ab-korn)"/><line x1="5.6" y1="39.06" x2="58.4" y2="39.06" stroke="#928b80" stroke-width="0.9" stroke-opacity="0.3"/><line x1="5" y1="54.69" x2="59" y2="54.69" stroke="#1a1713" stroke-width="1.6" stroke-opacity="0.5"/><rect x="5" y="55.89" width="54" height="16.23" fill="#625c54" rx="1.2" filter="url(#treppe_ab-korn)"/><line x1="5.6" y1="56.49" x2="58.4" y2="56.49" stroke="#928b80" stroke-width="0.9" stroke-opacity="0.3"/><line x1="5" y1="72.11" x2="59" y2="72.11" stroke="#1a1713" stroke-width="1.6" stroke-opacity="0.5"/><rect x="5" y="73.31" width="54" height="16.23" fill="#5f5a52" rx="1.2" filter="url(#treppe_ab-korn)"/><line x1="5.6" y1="73.91" x2="58.4" y2="73.91" stroke="#928b80" stroke-width="0.9" stroke-opacity="0.3"/><line x1="5" y1="89.54" x2="59" y2="89.54" stroke="#1a1713" stroke-width="1.6" stroke-opacity="0.5"/><rect x="5" y="90.74" width="54" height="16.23" fill="#5e5750" rx="1.2" filter="url(#treppe_ab-korn)"/><line x1="5.6" y1="91.34" x2="58.4" y2="91.34" stroke="#928b80" stroke-width="0.9" stroke-opacity="0.3"/><line x1="5" y1="106.97" x2="59" y2="106.97" stroke="#1a1713" stroke-width="1.6" stroke-opacity="0.5"/><rect x="5" y="108.17" width="54" height="16.23" fill="#59554e" rx="1.2" filter="url(#treppe_ab-korn)"/><line x1="5.6" y1="108.77" x2="58.4" y2="108.77" stroke="#928b80" stroke-width="0.9" stroke-opacity="0.3"/><line x1="5" y1="124.4" x2="59" y2="124.4" stroke="#1a1713" stroke-width="1.6" stroke-opacity="0.5"/><polyline points="24,94 32,107 40,94" fill="none" stroke="#1a1713" stroke-width="4.4" stroke-opacity="0.5" stroke-linecap="round" stroke-linejoin="round"/><polyline points="24,94 32,107 40,94" fill="none" stroke="#cfc7ad" stroke-width="2.4" stroke-opacity="0.85" stroke-linecap="round" stroke-linejoin="round"/><rect x="4" y="3" width="56" height="122" fill="none" stroke="#1a1713" stroke-width="2" stroke-opacity="0.6"/>
</svg>
