<svg xmlns="http://www.w3.org/2000/svg" viewBox="0 0 64 64" width="64" height="64">
<title>Kräuterkessel mit hölzernem Rührlöffel und Bündeln</title>
<defs><linearGradient id="genre-fantasy_kraeuterkessel-metal" x1="0" y1="0" x2=".75" y2="1"><stop stop-color="#c7d4d4"/><stop offset=".5" stop-color="#8da4ab"/><stop offset="1" stop-color="#647e89"/></linearGradient><linearGradient id="genre-fantasy_kraeuterkessel-ceramic" x1="0" y1="0" x2=".75" y2="1"><stop stop-color="#f2f1e5"/><stop offset=".5" stop-color="#d7e0db"/><stop offset="1" stop-color="#a4b7b4"/></linearGradient><linearGradient id="genre-fantasy_kraeuterkessel-wood" x1="0" y1="0" x2=".75" y2="1"><stop stop-color="#d1af80"/><stop offset=".5" stop-color="#b68d60"/><stop offset="1" stop-color="#8d6848"/></linearGradient><linearGradient id="genre-fantasy_kraeuterkessel-fabric" x1="0" y1="0" x2=".75" y2="1"><stop stop-color="#a4b6b6"/><stop offset=".5" stop-color="#728e99"/><stop offset="1" stop-color="#4e6b79"/></linearGradient><linearGradient id="genre-fantasy_kraeuterkessel-copper" x1="0" y1="0" x2=".75" y2="1"><stop stop-color="#d7b08b"/><stop offset=".5" stop-color="#af7b57"/><stop offset="1" stop-color="#815640"/></linearGradient><linearGradient id="genre-fantasy_kraeuterkessel-glass" x1="0" y1="0" x2=".75" y2="1"><stop stop-color="#b7e1df"/><stop offset=".5" stop-color="#6aa7b5"/><stop offset="1" stop-color="#3f737f"/></linearGradient><filter id="genre-fantasy_kraeuterkessel-shadow" x="-10%" y="-10%" width="120%" height="125%"><feDropShadow dx="0" dy="1.6" stdDeviation="1.2" flood-color="#13262c" flood-opacity=".32"/></filter><clipPath id="genre-fantasy_kraeuterkessel-bounds"><rect x="0" y="0" width="64" height="64"/></clipPath></defs><g clip-path="url(#genre-fantasy_kraeuterkessel-bounds)"><g filter="url(#genre-fantasy_kraeuterkessel-shadow)"><ellipse cx="32" cy="36" rx="25" ry="20" fill="url(#genre-fantasy_kraeuterkessel-metal)" stroke="#263b43" stroke-width="1.2"/><circle cx="32" cy="34" r="17" fill="#617e67" stroke="#263b43" stroke-width="1"/><path d="M7 28Q-1 34 7 40M57 28Q65 34 57 40" fill="none" stroke="#3a4e55" stroke-width="3" stroke-linejoin="round" stroke-linecap="round"/><line x1="19" y1="47" x2="49" y2="11" stroke="#b99567" stroke-width="4" stroke-linecap="round"/><ellipse cx="20" cy="30" rx="5" ry="2" fill="#b2c581" transform="rotate(0 20 30)"/><ellipse cx="28" cy="35" rx="5" ry="2" fill="#b2c581" transform="rotate(45 28 35)"/><ellipse cx="38" cy="40" rx="5" ry="2" fill="#b2c581" transform="rotate(90 38 40)"/><circle cx="40" cy="38" r="2" fill="#c1dbc1" stroke="#263b43" stroke-width="1"/></g></g>
</svg>
