<svg xmlns="http://www.w3.org/2000/svg" viewBox="0 0 64 64" width="64" height="64">
<title>Rautierte Werkstattfliesen mit eingelassenen Kabelrinnen</title>
<defs><linearGradient id="genre-steampunk_riemenwerkboden-metal" x1="0" y1="0" x2=".75" y2="1"><stop stop-color="#c7d4d4"/><stop offset=".5" stop-color="#8da4ab"/><stop offset="1" stop-color="#647e89"/></linearGradient><linearGradient id="genre-steampunk_riemenwerkboden-ceramic" x1="0" y1="0" x2=".75" y2="1"><stop stop-color="#f2f1e5"/><stop offset=".5" stop-color="#d7e0db"/><stop offset="1" stop-color="#a4b7b4"/></linearGradient><linearGradient id="genre-steampunk_riemenwerkboden-wood" x1="0" y1="0" x2=".75" y2="1"><stop stop-color="#d1af80"/><stop offset=".5" stop-color="#b68d60"/><stop offset="1" stop-color="#8d6848"/></linearGradient><linearGradient id="genre-steampunk_riemenwerkboden-fabric" x1="0" y1="0" x2=".75" y2="1"><stop stop-color="#a4b6b6"/><stop offset=".5" stop-color="#728e99"/><stop offset="1" stop-color="#4e6b79"/></linearGradient><linearGradient id="genre-steampunk_riemenwerkboden-copper" x1="0" y1="0" x2=".75" y2="1"><stop stop-color="#d7b08b"/><stop offset=".5" stop-color="#af7b57"/><stop offset="1" stop-color="#815640"/></linearGradient><linearGradient id="genre-steampunk_riemenwerkboden-glass" x1="0" y1="0" x2=".75" y2="1"><stop stop-color="#b7e1df"/><stop offset=".5" stop-color="#6aa7b5"/><stop offset="1" stop-color="#3f737f"/></linearGradient><filter id="genre-steampunk_riemenwerkboden-shadow" x="-10%" y="-10%" width="120%" height="125%"><feDropShadow dx="0" dy="1.6" stdDeviation="1.2" flood-color="#13262c" flood-opacity=".32"/></filter><clipPath id="genre-steampunk_riemenwerkboden-bounds"><rect x="0" y="0" width="64" height="64"/></clipPath></defs><g clip-path="url(#genre-steampunk_riemenwerkboden-bounds)"><g><rect x="0" y="0" width="64" height="64" rx="0" fill="#575953"/><polygon points="8,1 15,8 8,15 1,8" fill="#96947a" stroke="#bdb291" stroke-width="0.6"/><polygon points="24,1 31,8 24,15 17,8" fill="#96947a" stroke="#bdb291" stroke-width="0.6"/><polygon points="40,1 47,8 40,15 33,8" fill="#96947a" stroke="#bdb291" stroke-width="0.6"/><polygon points="56,1 63,8 56,15 49,8" fill="#96947a" stroke="#bdb291" stroke-width="0.6"/><polygon points="8,17 15,24 8,31 1,24" fill="#96947a" stroke="#bdb291" stroke-width="0.6"/><polygon points="24,17 31,24 24,31 17,24" fill="#96947a" stroke="#bdb291" stroke-width="0.6"/><polygon points="40,17 47,24 40,31 33,24" fill="#96947a" stroke="#bdb291" stroke-width="0.6"/><polygon points="56,17 63,24 56,31 49,24" fill="#96947a" stroke="#bdb291" stroke-width="0.6"/><polygon points="8,33 15,40 8,47 1,40" fill="#96947a" stroke="#bdb291" stroke-width="0.6"/><polygon points="24,33 31,40 24,47 17,40" fill="#96947a" stroke="#bdb291" stroke-width="0.6"/><polygon points="40,33 47,40 40,47 33,40" fill="#96947a" stroke="#bdb291" stroke-width="0.6"/><polygon points="56,33 63,40 56,47 49,40" fill="#96947a" stroke="#bdb291" stroke-width="0.6"/><polygon points="8,49 15,56 8,63 1,56" fill="#96947a" stroke="#bdb291" stroke-width="0.6"/><polygon points="24,49 31,56 24,63 17,56" fill="#96947a" stroke="#bdb291" stroke-width="0.6"/><polygon points="40,49 47,56 40,63 33,56" fill="#96947a" stroke="#bdb291" stroke-width="0.6"/><polygon points="56,49 63,56 56,63 49,56" fill="#96947a" stroke="#bdb291" stroke-width="0.6"/><rect x="0" y="28" width="64" height="8" rx="0" fill="#3f4943"/><line x1="0" y1="30" x2="64" y2="30" stroke="#c39c57" stroke-width="1" stroke-linecap="round"/><line x1="0" y1="34" x2="64" y2="34" stroke="#c39c57" stroke-width="1" stroke-linecap="round"/><line x1="8" y1="28" x2="8" y2="36" stroke="#60695a" stroke-width="2" stroke-linecap="round"/><line x1="24" y1="28" x2="24" y2="36" stroke="#60695a" stroke-width="2" stroke-linecap="round"/><line x1="40" y1="28" x2="40" y2="36" stroke="#60695a" stroke-width="2" stroke-linecap="round"/><line x1="56" y1="28" x2="56" y2="36" stroke="#60695a" stroke-width="2" stroke-linecap="round"/></g></g>
</svg>
