<svg xmlns="http://www.w3.org/2000/svg" viewBox="0 0 64 128" width="64" height="128">
<title>Elektrischer Gabelstapler mit Hubmast und zwei Zinken</title>
<defs><linearGradient id="zw-gabelstapler-metal" x1="0" y1="0" x2=".75" y2="1"><stop stop-color="#c7d4d4"/><stop offset=".5" stop-color="#8da4ab"/><stop offset="1" stop-color="#647e89"/></linearGradient><linearGradient id="zw-gabelstapler-ceramic" x1="0" y1="0" x2=".75" y2="1"><stop stop-color="#f2f1e5"/><stop offset=".5" stop-color="#d7e0db"/><stop offset="1" stop-color="#a4b7b4"/></linearGradient><linearGradient id="zw-gabelstapler-wood" x1="0" y1="0" x2=".75" y2="1"><stop stop-color="#d1af80"/><stop offset=".5" stop-color="#b68d60"/><stop offset="1" stop-color="#8d6848"/></linearGradient><linearGradient id="zw-gabelstapler-fabric" x1="0" y1="0" x2=".75" y2="1"><stop stop-color="#a4b6b6"/><stop offset=".5" stop-color="#728e99"/><stop offset="1" stop-color="#4e6b79"/></linearGradient><linearGradient id="zw-gabelstapler-copper" x1="0" y1="0" x2=".75" y2="1"><stop stop-color="#d7b08b"/><stop offset=".5" stop-color="#af7b57"/><stop offset="1" stop-color="#815640"/></linearGradient><linearGradient id="zw-gabelstapler-glass" x1="0" y1="0" x2=".75" y2="1"><stop stop-color="#b7e1df"/><stop offset=".5" stop-color="#6aa7b5"/><stop offset="1" stop-color="#3f737f"/></linearGradient><filter id="zw-gabelstapler-shadow" x="-10%" y="-10%" width="120%" height="125%"><feDropShadow dx="0" dy="1.6" stdDeviation="1.2" flood-color="#13262c" flood-opacity=".32"/></filter><clipPath id="zw-gabelstapler-bounds"><rect x="0" y="0" width="64" height="128"/></clipPath></defs><g clip-path="url(#zw-gabelstapler-bounds)"><g filter="url(#zw-gabelstapler-shadow)"><rect x="9" y="45" width="46" height="62" rx="8" fill="url(#zw-gabelstapler-copper)" stroke="#263b43" stroke-width="1.15"/><rect x="6" y="53" width="7" height="16" rx="2" fill="#1c3039" stroke="#263b43" stroke-width="1.15"/><rect x="6" y="88" width="7" height="16" rx="2" fill="#1c3039" stroke="#263b43" stroke-width="1.15"/><rect x="51" y="53" width="7" height="16" rx="2" fill="#1c3039" stroke="#263b43" stroke-width="1.15"/><rect x="51" y="88" width="7" height="16" rx="2" fill="#1c3039" stroke="#263b43" stroke-width="1.15"/><rect x="16" y="52" width="32" height="43" rx="3" fill="#3a4e55" stroke="#263b43" stroke-width="1.15"/><g transform="rotate(0 32 78)"><rect x="23" y="71" width="18" height="16" rx="5" fill="url(#zw-gabelstapler-fabric)" stroke="#263b43" stroke-width="1.15"/><rect x="21" y="67" width="22" height="6" rx="3" fill="url(#zw-gabelstapler-fabric)" stroke="#263b43" stroke-width="1.15"/><line x1="24" y1="69" x2="40" y2="69" stroke="#fff" stroke-width="0.9" stroke-linecap="round" opacity="0.55"/><rect x="20" y="75" width="3" height="11" rx="1" fill="#3a4e55" stroke="#263b43" stroke-width="1.15"/><rect x="41" y="75" width="3" height="11" rx="1" fill="#3a4e55" stroke="#263b43" stroke-width="1.15"/></g><circle cx="32" cy="57" r="7" fill="#1c3039" stroke="#263b43" stroke-width="1"/><circle cx="32" cy="57" r="4" fill="#91a6ad" stroke="#263b43" stroke-width="1"/><rect x="11" y="36" width="42" height="8" rx="1" fill="url(#zw-gabelstapler-metal)" stroke="#263b43" stroke-width="1.15"/><rect x="16" y="8" width="7" height="31" rx="1" fill="url(#zw-gabelstapler-metal)" stroke="#263b43" stroke-width="1.15"/><rect x="42" y="8" width="7" height="31" rx="1" fill="url(#zw-gabelstapler-metal)" stroke="#263b43" stroke-width="1.15"/><rect x="13" y="106" width="38" height="6" rx="1" fill="#dfac58"/><polygon points="15,112 19,106 22,106 18,112" fill="#3a4e55"/><polygon points="24,112 28,106 31,106 27,112" fill="#3a4e55"/><polygon points="33,112 37,106 40,106 36,112" fill="#3a4e55"/><polygon points="42,112 46,106 49,106 45,112" fill="#3a4e55"/></g></g>
</svg>
