<svg xmlns="http://www.w3.org/2000/svg" viewBox="0 0 128 128" width="128" height="128">
<title>Luftschleusenmodul mit zwei Schotts und Druckanzeigen</title>
<defs><linearGradient id="zw-schleusenkammer-metal" x1="0" y1="0" x2=".75" y2="1"><stop stop-color="#c7d4d4"/><stop offset=".5" stop-color="#8da4ab"/><stop offset="1" stop-color="#647e89"/></linearGradient><linearGradient id="zw-schleusenkammer-ceramic" x1="0" y1="0" x2=".75" y2="1"><stop stop-color="#f2f1e5"/><stop offset=".5" stop-color="#d7e0db"/><stop offset="1" stop-color="#a4b7b4"/></linearGradient><linearGradient id="zw-schleusenkammer-wood" x1="0" y1="0" x2=".75" y2="1"><stop stop-color="#d1af80"/><stop offset=".5" stop-color="#b68d60"/><stop offset="1" stop-color="#8d6848"/></linearGradient><linearGradient id="zw-schleusenkammer-fabric" x1="0" y1="0" x2=".75" y2="1"><stop stop-color="#a4b6b6"/><stop offset=".5" stop-color="#728e99"/><stop offset="1" stop-color="#4e6b79"/></linearGradient><linearGradient id="zw-schleusenkammer-copper" x1="0" y1="0" x2=".75" y2="1"><stop stop-color="#d7b08b"/><stop offset=".5" stop-color="#af7b57"/><stop offset="1" stop-color="#815640"/></linearGradient><linearGradient id="zw-schleusenkammer-glass" x1="0" y1="0" x2=".75" y2="1"><stop stop-color="#b7e1df"/><stop offset=".5" stop-color="#6aa7b5"/><stop offset="1" stop-color="#3f737f"/></linearGradient><filter id="zw-schleusenkammer-shadow" x="-10%" y="-10%" width="120%" height="125%"><feDropShadow dx="0" dy="1.6" stdDeviation="1.2" flood-color="#13262c" flood-opacity=".32"/></filter><clipPath id="zw-schleusenkammer-bounds"><rect x="0" y="0" width="128" height="128"/></clipPath></defs><g clip-path="url(#zw-schleusenkammer-bounds)"><g filter="url(#zw-schleusenkammer-shadow)"><path d="M20 6H108L122 20V108L108 122H20L6 108V20Z" fill="url(#zw-schleusenkammer-metal)" stroke="#263b43" stroke-width="1.2" stroke-linejoin="round" stroke-linecap="round"/><rect x="18" y="19" width="92" height="90" rx="8" fill="#68828b" stroke="#263b43" stroke-width="1.15"/><rect x="29" y="13" width="70" height="12" rx="2" fill="#3a4e55" stroke="#263b43" stroke-width="1.15"/><rect x="33" y="16" width="62" height="6" rx="1" fill="#dfac58"/><polygon points="35,22 39,16 42,16 38,22" fill="#3a4e55"/><polygon points="44,22 48,16 51,16 47,22" fill="#3a4e55"/><polygon points="53,22 57,16 60,16 56,22" fill="#3a4e55"/><polygon points="62,22 66,16 69,16 65,22" fill="#3a4e55"/><polygon points="71,22 75,16 78,16 74,22" fill="#3a4e55"/><polygon points="80,22 84,16 87,16 83,22" fill="#3a4e55"/><rect x="29" y="104" width="70" height="12" rx="2" fill="#3a4e55" stroke="#263b43" stroke-width="1.15"/><rect x="33" y="107" width="62" height="6" rx="1" fill="#dfac58"/><polygon points="35,113 39,107 42,107 38,113" fill="#3a4e55"/><polygon points="44,113 48,107 51,107 47,113" fill="#3a4e55"/><polygon points="53,113 57,107 60,107 56,113" fill="#3a4e55"/><polygon points="62,113 66,107 69,107 65,113" fill="#3a4e55"/><polygon points="71,113 75,107 78,107 74,113" fill="#3a4e55"/><polygon points="80,113 84,107 87,107 83,113" fill="#3a4e55"/><rect x="41" y="43" width="46" height="44" rx="8" fill="#3a4e55" stroke="#263b43" stroke-width="1.15"/><circle cx="64" cy="65" r="17" fill="none" stroke="#72dbe0" stroke-width="2"/><path d="M64 75V54m-4 5l4 -5l4 5" fill="none" stroke="#72dbe0" stroke-width="2" stroke-linejoin="round" stroke-linecap="round"/><rect x="96" y="46" width="10" height="24" rx="2" fill="#1c3039" stroke="#263b43" stroke-width="1.15"/><rect x="98" y="48" width="6" height="20" rx="1" fill="#234b59"/><path d="M100 61.6h1.5l1.2 -6.72l1.2 9.6l1.4 -5.76h1.7" fill="none" stroke="#72dbe0" stroke-width="1" stroke-linejoin="round" stroke-linecap="round"/><line x1="100" y1="50" x2="101.5" y2="50" stroke="#b0e9df" stroke-width="0.6" stroke-linecap="round"/></g></g>
</svg>
