<svg xmlns="http://www.w3.org/2000/svg" viewBox="0 0 64 64" width="64" height="64">
<title>Asphaltbelag mit Gesteinskörnung</title>
<defs><linearGradient id="zw-boden_asphalt-metal" x1="0" y1="0" x2=".75" y2="1"><stop stop-color="#c7d4d4"/><stop offset=".5" stop-color="#8da4ab"/><stop offset="1" stop-color="#647e89"/></linearGradient><linearGradient id="zw-boden_asphalt-ceramic" x1="0" y1="0" x2=".75" y2="1"><stop stop-color="#f2f1e5"/><stop offset=".5" stop-color="#d7e0db"/><stop offset="1" stop-color="#a4b7b4"/></linearGradient><linearGradient id="zw-boden_asphalt-wood" x1="0" y1="0" x2=".75" y2="1"><stop stop-color="#d1af80"/><stop offset=".5" stop-color="#b68d60"/><stop offset="1" stop-color="#8d6848"/></linearGradient><linearGradient id="zw-boden_asphalt-fabric" x1="0" y1="0" x2=".75" y2="1"><stop stop-color="#a4b6b6"/><stop offset=".5" stop-color="#728e99"/><stop offset="1" stop-color="#4e6b79"/></linearGradient><linearGradient id="zw-boden_asphalt-copper" x1="0" y1="0" x2=".75" y2="1"><stop stop-color="#d7b08b"/><stop offset=".5" stop-color="#af7b57"/><stop offset="1" stop-color="#815640"/></linearGradient><linearGradient id="zw-boden_asphalt-glass" x1="0" y1="0" x2=".75" y2="1"><stop stop-color="#b7e1df"/><stop offset=".5" stop-color="#6aa7b5"/><stop offset="1" stop-color="#3f737f"/></linearGradient><filter id="zw-boden_asphalt-shadow" x="-10%" y="-10%" width="120%" height="125%"><feDropShadow dx="0" dy="1.6" stdDeviation="1.2" flood-color="#13262c" flood-opacity=".32"/></filter><clipPath id="zw-boden_asphalt-bounds"><rect x="0" y="0" width="64" height="64"/></clipPath></defs><g clip-path="url(#zw-boden_asphalt-bounds)"><g><rect x="0" y="0" width="64" height="64" rx="0" fill="#586265"/><circle cx="7.3" cy="60.9" r="0.2" fill="#323f45" opacity="0.8"/><circle cx="44" cy="10.5" r="0.7" fill="#323f45" opacity="0.8"/><circle cx="5.9" cy="12" r="0.4" fill="#323f45" opacity="0.8"/><circle cx="7.8" cy="39.5" r="0.5" fill="#323f45" opacity="0.8"/><circle cx="43.6" cy="47.2" r="0.5" fill="#78817c" opacity="0.8"/><circle cx="2.7" cy="34.8" r="0.3" fill="#323f45" opacity="0.8"/><circle cx="58.1" cy="50.1" r="0.5" fill="#a7aaa0" opacity="0.8"/><circle cx="28.4" cy="32.3" r="0.3" fill="#a7aaa0" opacity="0.8"/><circle cx="42.4" cy="10.5" r="0.7" fill="#78817c" opacity="0.8"/><circle cx="55" cy="8.4" r="0.4" fill="#323f45" opacity="0.8"/><circle cx="37.8" cy="52.9" r="0.5" fill="#a7aaa0" opacity="0.8"/><circle cx="2.9" cy="49.6" r="0.7" fill="#323f45" opacity="0.8"/><circle cx="28.1" cy="17.3" r="0.6" fill="#323f45" opacity="0.8"/><circle cx="47.5" cy="36.3" r="0.5" fill="#a7aaa0" opacity="0.8"/><circle cx="15.8" cy="42.3" r="0.3" fill="#78817c" opacity="0.8"/><circle cx="17.1" cy="37.3" r="0.4" fill="#78817c" opacity="0.8"/><circle cx="23.1" cy="52.7" r="0.3" fill="#323f45" opacity="0.8"/><circle cx="50.7" cy="51.1" r="0.4" fill="#78817c" opacity="0.8"/><circle cx="50.6" cy="19.1" r="0.3" fill="#78817c" opacity="0.8"/><circle cx="17.7" cy="36.5" r="0.7" fill="#78817c" opacity="0.8"/><circle cx="1.9" cy="59.4" r="0.6" fill="#323f45" opacity="0.8"/><circle cx="29.5" cy="9.7" r="0.4" fill="#323f45" opacity="0.8"/><circle cx="25.3" cy="31.9" r="0.6" fill="#a7aaa0" opacity="0.8"/><circle cx="51" cy="25.8" r="0.5" fill="#323f45" opacity="0.8"/><circle cx="16" cy="54.5" r="0.4" fill="#78817c" opacity="0.8"/><circle cx="38.7" cy="35.5" r="0.3" fill="#a7aaa0" opacity="0.8"/><circle cx="59.4" cy="26.9" r="0.6" fill="#a7aaa0" opacity="0.8"/><circle cx="52.1" cy="1.6" r="0.3" fill="#323f45" opacity="0.8"/><circle cx="49" cy="49" r="0.5" fill="#a7aaa0" opacity="0.8"/><circle cx="34.1" cy="33.2" r="0.6" fill="#78817c" opacity="0.8"/><circle cx="59" cy="39.3" r="0.4" fill="#323f45" opacity="0.8"/><circle cx="17.8" cy="35.2" r="0.5" fill="#323f45" opacity="0.8"/><circle cx="31.9" cy="3.1" r="0.5" fill="#78817c" opacity="0.8"/><circle cx="41.4" cy="15.9" r="0.6" fill="#78817c" opacity="0.8"/><circle cx="8.1" cy="18.7" r="0.6" fill="#a7aaa0" opacity="0.8"/><circle cx="44.4" cy="51.2" r="0.3" fill="#a7aaa0" opacity="0.8"/><circle cx="1.2" cy="36.1" r="0.5" fill="#78817c" opacity="0.8"/><circle cx="24.9" cy="54.1" r="0.6" fill="#78817c" opacity="0.8"/><circle cx="17.8" cy="44.5" r="0.5" fill="#323f45" opacity="0.8"/><circle cx="34.4" cy="28.5" r="0.7" fill="#323f45" opacity="0.8"/><circle cx="23.1" cy="12.2" r="0.3" fill="#a7aaa0" opacity="0.8"/><circle cx="33.5" cy="43" r="0.3" fill="#78817c" opacity="0.8"/><circle cx="12.8" cy="44.3" r="0.2" fill="#a7aaa0" opacity="0.8"/><circle cx="58.5" cy="63.2" r="0.3" fill="#323f45" opacity="0.8"/><circle cx="3" cy="31.4" r="0.3" fill="#323f45" opacity="0.8"/><circle cx="43.5" cy="45.4" r="0.6" fill="#323f45" opacity="0.8"/><circle cx="3.1" cy="3.8" r="0.4" fill="#323f45" opacity="0.8"/><circle cx="51" cy="16.8" r="0.2" fill="#a7aaa0" opacity="0.8"/><circle cx="54.9" cy="47.6" r="0.5" fill="#a7aaa0" opacity="0.8"/><circle cx="6.3" cy="16.3" r="0.5" fill="#323f45" opacity="0.8"/><circle cx="21.5" cy="61.7" r="0.7" fill="#a7aaa0" opacity="0.8"/><circle cx="52.9" cy="9.3" r="0.6" fill="#323f45" opacity="0.8"/><circle cx="18.7" cy="40.5" r="0.3" fill="#78817c" opacity="0.8"/><circle cx="41.5" cy="50.9" r="0.5" fill="#78817c" opacity="0.8"/><circle cx="50.3" cy="8.9" r="0.3" fill="#a7aaa0" opacity="0.8"/><circle cx="37.2" cy="59.6" r="0.2" fill="#a7aaa0" opacity="0.8"/><circle cx="31.9" cy="52.4" r="0.5" fill="#78817c" opacity="0.8"/><circle cx="25.7" cy="3.6" r="0.3" fill="#323f45" opacity="0.8"/><circle cx="53" cy="39" r="0.6" fill="#a7aaa0" opacity="0.8"/><circle cx="1.6" cy="4.4" r="0.4" fill="#78817c" opacity="0.8"/><circle cx="4.3" cy="16.7" r="0.3" fill="#323f45" opacity="0.8"/><circle cx="47.8" cy="25.1" r="0.3" fill="#a7aaa0" opacity="0.8"/><circle cx="11.6" cy="10.2" r="0.7" fill="#78817c" opacity="0.8"/><circle cx="8.2" cy="11.8" r="0.3" fill="#a7aaa0" opacity="0.8"/><circle cx="50.8" cy="40.5" r="0.5" fill="#323f45" opacity="0.8"/><circle cx="20" cy="43.5" r="0.5" fill="#a7aaa0" opacity="0.8"/><circle cx="55.7" cy="54.3" r="0.4" fill="#323f45" opacity="0.8"/><circle cx="7.6" cy="14.4" r="0.4" fill="#323f45" opacity="0.8"/><circle cx="56.8" cy="39" r="0.3" fill="#323f45" opacity="0.8"/><circle cx="18.3" cy="24.7" r="0.3" fill="#78817c" opacity="0.8"/><circle cx="3.9" cy="11.4" r="0.4" fill="#78817c" opacity="0.8"/><circle cx="17.3" cy="20.2" r="0.6" fill="#a7aaa0" opacity="0.8"/><circle cx="25.6" cy="28.6" r="0.4" fill="#323f45" opacity="0.8"/><circle cx="30.9" cy="62.4" r="0.6" fill="#323f45" opacity="0.8"/><circle cx="27.6" cy="36.2" r="0.6" fill="#78817c" opacity="0.8"/><circle cx="19.5" cy="5.5" r="0.4" fill="#a7aaa0" opacity="0.8"/><circle cx="56.2" cy="3.4" r="0.3" fill="#a7aaa0" opacity="0.8"/><circle cx="28" cy="11.4" r="0.2" fill="#78817c" opacity="0.8"/><circle cx="43.7" cy="22.4" r="0.7" fill="#78817c" opacity="0.8"/><circle cx="51.3" cy="14.6" r="0.2" fill="#a7aaa0" opacity="0.8"/><circle cx="39.7" cy="33" r="0.4" fill="#323f45" opacity="0.8"/><circle cx="20.3" cy="44.6" r="0.4" fill="#78817c" opacity="0.8"/><circle cx="28" cy="22.1" r="0.2" fill="#323f45" opacity="0.8"/><circle cx="38.8" cy="7.5" r="0.6" fill="#a7aaa0" opacity="0.8"/><circle cx="4.8" cy="1" r="0.4" fill="#78817c" opacity="0.8"/><circle cx="5.2" cy="57.2" r="0.7" fill="#78817c" opacity="0.8"/><circle cx="55.4" cy="10" r="0.6" fill="#78817c" opacity="0.8"/><circle cx="55.9" cy="6" r="0.2" fill="#323f45" opacity="0.8"/><circle cx="9.3" cy="33.7" r="0.5" fill="#a7aaa0" opacity="0.8"/><circle cx="3.5" cy="26" r="0.3" fill="#323f45" opacity="0.8"/><circle cx="52.6" cy="27.4" r="0.7" fill="#323f45" opacity="0.8"/><circle cx="9.9" cy="39.6" r="0.4" fill="#78817c" opacity="0.8"/><circle cx="57.2" cy="3.4" r="0.3" fill="#a7aaa0" opacity="0.8"/><circle cx="54.1" cy="47.1" r="0.4" fill="#a7aaa0" opacity="0.8"/><circle cx="3.6" cy="26.4" r="0.6" fill="#323f45" opacity="0.8"/><circle cx="18.1" cy="23.7" r="0.4" fill="#a7aaa0" opacity="0.8"/><circle cx="11.2" cy="54.2" r="0.5" fill="#a7aaa0" opacity="0.8"/><circle cx="61.5" cy="19.2" r="0.4" fill="#a7aaa0" opacity="0.8"/><circle cx="40.2" cy="33.5" r="0.2" fill="#323f45" opacity="0.8"/><circle cx="31.9" cy="39.9" r="0.2" fill="#323f45" opacity="0.8"/><circle cx="21.6" cy="40.4" r="0.4" fill="#323f45" opacity="0.8"/><circle cx="28.8" cy="34.8" r="0.5" fill="#323f45" opacity="0.8"/><circle cx="11.4" cy="57.7" r="0.4" fill="#323f45" opacity="0.8"/><circle cx="62.3" cy="51.5" r="0.2" fill="#a7aaa0" opacity="0.8"/><circle cx="25.9" cy="11.6" r="0.5" fill="#78817c" opacity="0.8"/><circle cx="34.1" cy="20.9" r="0.4" fill="#78817c" opacity="0.8"/><circle cx="35.3" cy="45.5" r="0.3" fill="#78817c" opacity="0.8"/><circle cx="33.5" cy="31.5" r="0.3" fill="#78817c" opacity="0.8"/><circle cx="60.8" cy="34.9" r="0.4" fill="#323f45" opacity="0.8"/><circle cx="18.8" cy="47" r="0.3" fill="#a7aaa0" opacity="0.8"/><circle cx="6.3" cy="4.9" r="0.4" fill="#323f45" opacity="0.8"/><circle cx="57.1" cy="28.7" r="0.6" fill="#78817c" opacity="0.8"/><circle cx="12.4" cy="32.7" r="0.4" fill="#78817c" opacity="0.8"/><circle cx="50.9" cy="33.5" r="0.4" fill="#78817c" opacity="0.8"/><circle cx="18.9" cy="61.1" r="0.6" fill="#a7aaa0" opacity="0.8"/><circle cx="26" cy="10.4" r="0.6" fill="#78817c" opacity="0.8"/><circle cx="33.4" cy="14.1" r="0.6" fill="#78817c" opacity="0.8"/><circle cx="36.2" cy="12.8" r="0.7" fill="#a7aaa0" opacity="0.8"/><circle cx="61.6" cy="15.2" r="0.7" fill="#a7aaa0" opacity="0.8"/><circle cx="62.3" cy="32.1" r="0.7" fill="#323f45" opacity="0.8"/><circle cx="40.1" cy="61.9" r="0.3" fill="#78817c" opacity="0.8"/><circle cx="46" cy="1.3" r="0.6" fill="#78817c" opacity="0.8"/><circle cx="43.7" cy="21.6" r="0.4" fill="#323f45" opacity="0.8"/><circle cx="63.2" cy="45.8" r="0.3" fill="#a7aaa0" opacity="0.8"/><circle cx="10.2" cy="39.7" r="0.6" fill="#a7aaa0" opacity="0.8"/><circle cx="8.1" cy="55.2" r="0.4" fill="#323f45" opacity="0.8"/><circle cx="10.7" cy="24.6" r="0.5" fill="#a7aaa0" opacity="0.8"/><circle cx="60.7" cy="46.6" r="0.3" fill="#78817c" opacity="0.8"/><circle cx="5.6" cy="60.3" r="0.3" fill="#323f45" opacity="0.8"/><circle cx="5.5" cy="29.2" r="0.3" fill="#323f45" opacity="0.8"/></g></g>
</svg>
