<svg xmlns="http://www.w3.org/2000/svg" viewBox="0 0 128 64" width="128" height="64">
<title>Fächerförmige Schriftrollenablage mit offenen Rollen</title>
<defs><linearGradient id="genre-antike_schriftrollenfaecher-metal" x1="0" y1="0" x2=".75" y2="1"><stop stop-color="#c7d4d4"/><stop offset=".5" stop-color="#8da4ab"/><stop offset="1" stop-color="#647e89"/></linearGradient><linearGradient id="genre-antike_schriftrollenfaecher-ceramic" x1="0" y1="0" x2=".75" y2="1"><stop stop-color="#f2f1e5"/><stop offset=".5" stop-color="#d7e0db"/><stop offset="1" stop-color="#a4b7b4"/></linearGradient><linearGradient id="genre-antike_schriftrollenfaecher-wood" x1="0" y1="0" x2=".75" y2="1"><stop stop-color="#d1af80"/><stop offset=".5" stop-color="#b68d60"/><stop offset="1" stop-color="#8d6848"/></linearGradient><linearGradient id="genre-antike_schriftrollenfaecher-fabric" x1="0" y1="0" x2=".75" y2="1"><stop stop-color="#a4b6b6"/><stop offset=".5" stop-color="#728e99"/><stop offset="1" stop-color="#4e6b79"/></linearGradient><linearGradient id="genre-antike_schriftrollenfaecher-copper" x1="0" y1="0" x2=".75" y2="1"><stop stop-color="#d7b08b"/><stop offset=".5" stop-color="#af7b57"/><stop offset="1" stop-color="#815640"/></linearGradient><linearGradient id="genre-antike_schriftrollenfaecher-glass" x1="0" y1="0" x2=".75" y2="1"><stop stop-color="#b7e1df"/><stop offset=".5" stop-color="#6aa7b5"/><stop offset="1" stop-color="#3f737f"/></linearGradient><filter id="genre-antike_schriftrollenfaecher-shadow" x="-10%" y="-10%" width="120%" height="125%"><feDropShadow dx="0" dy="1.6" stdDeviation="1.2" flood-color="#13262c" flood-opacity=".32"/></filter><clipPath id="genre-antike_schriftrollenfaecher-bounds"><rect x="0" y="0" width="128" height="64"/></clipPath></defs><g clip-path="url(#genre-antike_schriftrollenfaecher-bounds)"><g filter="url(#genre-antike_schriftrollenfaecher-shadow)"><path d="M8 51Q6 6 64 6Q122 6 120 51Z" fill="url(#genre-antike_schriftrollenfaecher-wood)" stroke="#263b43" stroke-width="1.2" stroke-linejoin="round" stroke-linecap="round"/><g transform="rotate(-36 64 55)"><rect x="60" y="15" width="8" height="33" rx="3" fill="#d8c798" stroke="#263b43" stroke-width="1.15"/><circle cx="64" cy="18" r="3" fill="#937f56" stroke="#263b43" stroke-width="1"/><line x1="62" y1="25" x2="62" y2="41" stroke="#b4a072" stroke-width="0.7" stroke-linecap="round"/></g><g transform="rotate(-24 64 55)"><rect x="60" y="15" width="8" height="33" rx="3" fill="#d8c798" stroke="#263b43" stroke-width="1.15"/><circle cx="64" cy="18" r="3" fill="#937f56" stroke="#263b43" stroke-width="1"/><line x1="62" y1="25" x2="62" y2="41" stroke="#b4a072" stroke-width="0.7" stroke-linecap="round"/></g><g transform="rotate(-12 64 55)"><rect x="60" y="15" width="8" height="33" rx="3" fill="#d8c798" stroke="#263b43" stroke-width="1.15"/><circle cx="64" cy="18" r="3" fill="#937f56" stroke="#263b43" stroke-width="1"/><line x1="62" y1="25" x2="62" y2="41" stroke="#b4a072" stroke-width="0.7" stroke-linecap="round"/></g><g transform="rotate(0 64 55)"><rect x="60" y="15" width="8" height="33" rx="3" fill="#d8c798" stroke="#263b43" stroke-width="1.15"/><circle cx="64" cy="18" r="3" fill="#937f56" stroke="#263b43" stroke-width="1"/><line x1="62" y1="25" x2="62" y2="41" stroke="#b4a072" stroke-width="0.7" stroke-linecap="round"/></g><g transform="rotate(12 64 55)"><rect x="60" y="15" width="8" height="33" rx="3" fill="#d8c798" stroke="#263b43" stroke-width="1.15"/><circle cx="64" cy="18" r="3" fill="#937f56" stroke="#263b43" stroke-width="1"/><line x1="62" y1="25" x2="62" y2="41" stroke="#b4a072" stroke-width="0.7" stroke-linecap="round"/></g><g transform="rotate(24 64 55)"><rect x="60" y="15" width="8" height="33" rx="3" fill="#d8c798" stroke="#263b43" stroke-width="1.15"/><circle cx="64" cy="18" r="3" fill="#937f56" stroke="#263b43" stroke-width="1"/><line x1="62" y1="25" x2="62" y2="41" stroke="#b4a072" stroke-width="0.7" stroke-linecap="round"/></g><g transform="rotate(36 64 55)"><rect x="60" y="15" width="8" height="33" rx="3" fill="#d8c798" stroke="#263b43" stroke-width="1.15"/><circle cx="64" cy="18" r="3" fill="#937f56" stroke="#263b43" stroke-width="1"/><line x1="62" y1="25" x2="62" y2="41" stroke="#b4a072" stroke-width="0.7" stroke-linecap="round"/></g><rect x="18" y="49" width="92" height="10" rx="2" fill="#a08257" stroke="#263b43" stroke-width="1.15"/><rect x="37" y="39" width="52" height="14" rx="2" fill="#eee1bb" stroke="#263b43" stroke-width="1.15"/><line x1="42" y1="43" x2="78" y2="43" stroke="#8b7955" stroke-width="0.8" stroke-linecap="round"/><line x1="42" y1="47" x2="70" y2="47" stroke="#8b7955" stroke-width="0.8" stroke-linecap="round"/></g></g>
</svg>
