<svg xmlns="http://www.w3.org/2000/svg" viewBox="0 0 128 64" width="128" height="64">
<title>Ermittlerschreibtisch mit Schreibmaschine und grüner Bankierlampe</title>
<defs><linearGradient id="genre-noir_ermittlerschreibtisch-metal" x1="0" y1="0" x2=".75" y2="1"><stop stop-color="#c7d4d4"/><stop offset=".5" stop-color="#8da4ab"/><stop offset="1" stop-color="#647e89"/></linearGradient><linearGradient id="genre-noir_ermittlerschreibtisch-ceramic" x1="0" y1="0" x2=".75" y2="1"><stop stop-color="#f2f1e5"/><stop offset=".5" stop-color="#d7e0db"/><stop offset="1" stop-color="#a4b7b4"/></linearGradient><linearGradient id="genre-noir_ermittlerschreibtisch-wood" x1="0" y1="0" x2=".75" y2="1"><stop stop-color="#d1af80"/><stop offset=".5" stop-color="#b68d60"/><stop offset="1" stop-color="#8d6848"/></linearGradient><linearGradient id="genre-noir_ermittlerschreibtisch-fabric" x1="0" y1="0" x2=".75" y2="1"><stop stop-color="#a4b6b6"/><stop offset=".5" stop-color="#728e99"/><stop offset="1" stop-color="#4e6b79"/></linearGradient><linearGradient id="genre-noir_ermittlerschreibtisch-copper" x1="0" y1="0" x2=".75" y2="1"><stop stop-color="#d7b08b"/><stop offset=".5" stop-color="#af7b57"/><stop offset="1" stop-color="#815640"/></linearGradient><linearGradient id="genre-noir_ermittlerschreibtisch-glass" x1="0" y1="0" x2=".75" y2="1"><stop stop-color="#b7e1df"/><stop offset=".5" stop-color="#6aa7b5"/><stop offset="1" stop-color="#3f737f"/></linearGradient><filter id="genre-noir_ermittlerschreibtisch-shadow" x="-10%" y="-10%" width="120%" height="125%"><feDropShadow dx="0" dy="1.6" stdDeviation="1.2" flood-color="#13262c" flood-opacity=".32"/></filter><clipPath id="genre-noir_ermittlerschreibtisch-bounds"><rect x="0" y="0" width="128" height="64"/></clipPath></defs><g clip-path="url(#genre-noir_ermittlerschreibtisch-bounds)"><g filter="url(#genre-noir_ermittlerschreibtisch-shadow)"><path d="M6 8H122V56H87V46H41V56H6Z" fill="url(#genre-noir_ermittlerschreibtisch-wood)" stroke="#263b43" stroke-width="1.2" stroke-linejoin="round" stroke-linecap="round"/><rect x="36" y="17" width="45" height="31" rx="4" fill="#43534e" stroke="#263b43" stroke-width="1.15"/><rect x="42" y="11" width="33" height="17" rx="1" fill="#e0d8ba" stroke="#263b43" stroke-width="1.15"/><circle cx="41" cy="32" r="1.4" fill="#d0c7a9" stroke="#263b43" stroke-width="1"/><circle cx="45.8" cy="32" r="1.4" fill="#d0c7a9" stroke="#263b43" stroke-width="1"/><circle cx="50.6" cy="32" r="1.4" fill="#d0c7a9" stroke="#263b43" stroke-width="1"/><circle cx="55.4" cy="32" r="1.4" fill="#d0c7a9" stroke="#263b43" stroke-width="1"/><circle cx="60.2" cy="32" r="1.4" fill="#d0c7a9" stroke="#263b43" stroke-width="1"/><circle cx="65" cy="32" r="1.4" fill="#d0c7a9" stroke="#263b43" stroke-width="1"/><circle cx="69.8" cy="32" r="1.4" fill="#d0c7a9" stroke="#263b43" stroke-width="1"/><circle cx="74.6" cy="32" r="1.4" fill="#d0c7a9" stroke="#263b43" stroke-width="1"/><circle cx="41" cy="36.7" r="1.4" fill="#d0c7a9" stroke="#263b43" stroke-width="1"/><circle cx="45.8" cy="36.7" r="1.4" fill="#d0c7a9" stroke="#263b43" stroke-width="1"/><circle cx="50.6" cy="36.7" r="1.4" fill="#d0c7a9" stroke="#263b43" stroke-width="1"/><circle cx="55.4" cy="36.7" r="1.4" fill="#d0c7a9" stroke="#263b43" stroke-width="1"/><circle cx="60.2" cy="36.7" r="1.4" fill="#d0c7a9" stroke="#263b43" stroke-width="1"/><circle cx="65" cy="36.7" r="1.4" fill="#d0c7a9" stroke="#263b43" stroke-width="1"/><circle cx="69.8" cy="36.7" r="1.4" fill="#d0c7a9" stroke="#263b43" stroke-width="1"/><circle cx="74.6" cy="36.7" r="1.4" fill="#d0c7a9" stroke="#263b43" stroke-width="1"/><circle cx="41" cy="41.4" r="1.4" fill="#d0c7a9" stroke="#263b43" stroke-width="1"/><circle cx="45.8" cy="41.4" r="1.4" fill="#d0c7a9" stroke="#263b43" stroke-width="1"/><circle cx="50.6" cy="41.4" r="1.4" fill="#d0c7a9" stroke="#263b43" stroke-width="1"/><circle cx="55.4" cy="41.4" r="1.4" fill="#d0c7a9" stroke="#263b43" stroke-width="1"/><circle cx="60.2" cy="41.4" r="1.4" fill="#d0c7a9" stroke="#263b43" stroke-width="1"/><circle cx="65" cy="41.4" r="1.4" fill="#d0c7a9" stroke="#263b43" stroke-width="1"/><circle cx="69.8" cy="41.4" r="1.4" fill="#d0c7a9" stroke="#263b43" stroke-width="1"/><circle cx="74.6" cy="41.4" r="1.4" fill="#d0c7a9" stroke="#263b43" stroke-width="1"/><rect x="45" y="46" width="28" height="3" rx="1" fill="#bab08d" stroke="#263b43" stroke-width="1.15"/><rect x="9" y="16" width="22" height="8" rx="4" fill="#426a58" stroke="#263b43" stroke-width="1.15"/><line x1="20" y1="22" x2="20" y2="41" stroke="#dfac58" stroke-width="2" stroke-linecap="round"/><circle cx="20" cy="42" r="7" fill="#dfac58" stroke="#263b43" stroke-width="1"/><rect x="92" y="16" width="22" height="22" rx="1" fill="#d5c49c" stroke="#263b43" stroke-width="1.15" transform="rotate(7 103 27)"/><line x1="96" y1="22" x2="110" y2="24" stroke="#857761" stroke-width="0.7" stroke-linecap="round"/></g></g>
</svg>
